<svg width="134" height="35" viewBox="0 0 134 35" fill="none" xmlns="http://www.w3.org/2000/svg">
<path d="M44.2141 2.38281H37.9746V33.4023H44.2141V2.38281Z" fill="white"/>
<path d="M133.193 2.38281H127.76H126.953L119.513 20.2035L112.073 2.38281H111.069H105.833H104.829V33.4061H111.069V14.9263L116.952 29.0154H116.971H122.055H122.074L127.76 15.3922V33.4061H134V2.38281H133.193Z" fill="white"/>
<path d="M94.8125 2.38281H84.6633H78.4238V22.3932V33.4023H84.6633V22.397H94.8125C97.8205 22.397 100.26 19.9573 100.26 16.9493V7.83434C100.264 4.82255 97.8243 2.38281 94.8125 2.38281ZM93.8427 15.612C93.8427 16.4416 93.1683 17.116 92.3387 17.116H84.6633V7.74342H92.3387C93.1683 7.74342 93.8427 8.41776 93.8427 9.24742V15.612Z" fill="white"/>
<path d="M67.3244 33.4063H73.5639L68.2412 22.2948C70.7529 21.8099 72.6509 19.6013 72.6509 16.9494V7.83446C72.6509 4.82646 70.2111 2.38672 67.2031 2.38672H57.054H50.8145V22.3971V33.4063H57.054V22.3971H62.0509L67.3244 33.4063ZM57.054 7.74354H64.7293C65.559 7.74354 66.2333 8.41787 66.2333 9.24754V15.6083C66.2333 16.4379 65.559 17.1123 64.7293 17.1123H57.054V7.74354Z" fill="white"/>
<path d="M15.0249 0L0 8.67168V26.0188L15.0249 34.6905L30.0497 26.0188V8.67168L15.0249 0ZM15.0249 3.06104L27.3978 10.2022V22.6168H24.9202V13.1269H24.4959V11.7895H22.9805V13.1269H22.4653V27.3372L21.2606 28.0305V13.3049H20.5938V12.7253H19.5255V13.3049H18.7678V29.4701L17.6995 30.0876V9.78168H16.7183V6.97447H15.8697V5.90614H14.1762V6.97447V7.33058V9.78168H12.7935V30.3452L11.2781 29.4701V12.6344H10.2969V11.4296H7.66775V12.6344H6.81915V21.4803H2.65189V10.206L15.0249 3.06104Z" fill="white"/>
<path d="M15.0249 5.90614H14.1762V6.97447V7.33058V9.78169H12.7935V30.3452L11.2781 29.4701V12.6344H10.2969V11.4334H7.66775V12.6344H6.82293V21.4841H2.65189V10.206L15.0249 3.06104V0L0 8.67168V26.0188L15.0249 34.6943V5.90614Z" fill="#E0E0E0"/>
</svg>
