<svg width="14" height="14" viewBox="0 0 14 14" fill="none" xmlns="http://www.w3.org/2000/svg">
<path d="M12.8792 2.85251C13.8154 1.91663 13.8724 0.497849 13.8743 0.437928L13.8887 0L13.4507 0.0143128C13.3908 0.0163422 11.9713 0.0732727 11.0351 1.00916C10.2711 1.77286 10.0927 2.85828 10.0518 3.26416L9.5356 3.77953C9.55451 3.64815 9.56551 3.51325 9.56551 3.37493C9.56551 2.05153 8.60218 1.00798 8.56116 0.964188L8.26155 0.644394L7.96195 0.964188C7.92093 1.00798 6.9576 2.05153 6.9576 3.37493C6.9576 4.34243 7.47211 5.15985 7.76509 5.54694L7.19963 6.11133C7.21704 5.98497 7.22719 5.8552 7.22719 5.72243C7.22719 4.39893 6.26375 3.35538 6.22274 3.31159L5.92324 2.99179L5.62363 3.31159C5.58261 3.35538 4.61917 4.39893 4.61917 5.72243C4.61917 6.68352 5.12706 7.49668 5.42101 7.88686L4.83226 8.47454C4.84946 8.34936 4.85929 8.22086 4.85929 8.08948C4.85929 6.76598 3.89585 5.72243 3.85483 5.67864L3.55522 5.35884L3.25572 5.67864C3.21471 5.72243 2.25127 6.76598 2.25127 8.08948C2.25127 9.04897 2.75755 9.86106 3.05161 10.252L0 13.2984L0.579987 13.879L3.69557 10.7689C4.00864 11.0058 4.60401 11.3875 5.333 11.5249C5.26474 11.2217 5.22853 10.9065 5.22853 10.583C5.22853 10.0204 5.33769 9.48284 5.53562 8.99012C5.51319 8.99289 5.49086 8.99578 5.46865 8.99888L5.57695 8.89078C6.01168 7.88302 6.82216 7.07392 7.831 6.6409C7.83089 6.6409 7.83089 6.6409 7.83078 6.6409L8.39528 6.07737C8.50562 6.1594 8.64693 6.25606 8.81366 6.35337C9.04277 6.31534 9.27787 6.29526 9.51755 6.29526C10.1936 6.29526 10.8334 6.45259 11.4027 6.73233C12.2921 6.46766 12.9178 5.89087 12.9514 5.85936L13.2713 5.55997L12.9514 5.26047C12.9078 5.21946 11.8638 4.25644 10.5398 4.25644C10.4235 4.25644 10.3096 4.26424 10.1982 4.2778L10.6433 3.83336C11.0641 3.78882 12.1274 3.60404 12.8792 2.85251V2.85251Z" fill="white"/>
<path d="M9.51755 7.16602C7.63275 7.16602 6.09937 8.69887 6.09937 10.5829C6.09937 12.4671 7.63275 13.9999 9.51755 13.9999C11.4023 13.9999 12.9357 12.4671 12.9357 10.5829C12.9357 8.69887 11.4023 7.16602 9.51755 7.16602ZM11.183 9.54631L10.8631 9.86611C10.9164 9.96224 10.9592 10.065 10.9903 10.1727H11.4424V10.9932H10.9903C10.9592 11.1008 10.9164 11.2036 10.8631 11.2997L11.183 11.6195L10.6025 12.1997L10.2826 11.8799C10.1864 11.9333 10.0837 11.9761 9.97598 12.0071V12.4592H9.15514V12.0071C9.04736 11.9761 8.94461 11.9333 8.84848 11.8799L8.52847 12.1997L7.94806 11.6195L8.26807 11.2997C8.21466 11.2036 8.17183 11.1008 8.14075 10.9932H7.68861V10.1727H8.14075C8.17183 10.065 8.21466 9.96224 8.26807 9.86611L7.94806 9.54631L8.52847 8.96611L8.84848 9.28591C8.94461 9.23261 9.04736 9.18977 9.15514 9.15869V8.70667H9.97598V9.15869C10.0837 9.18977 10.1864 9.23261 10.2826 9.28591L10.6025 8.96611L11.183 9.54631Z" fill="white"/>
<path d="M9.56551 9.92114C9.20042 9.92114 8.90338 10.218 8.90338 10.5829C8.90338 10.9479 9.20042 11.2449 9.56551 11.2449C9.93059 11.2449 10.2276 10.9479 10.2276 10.5829C10.2276 10.218 9.93059 9.92114 9.56551 9.92114V9.92114Z" fill="white"/>
</svg>
