<svg width="14" height="14" viewBox="0 0 14 14" fill="none" xmlns="http://www.w3.org/2000/svg">
<path d="M2.46434 0C1.85764 0 1.27578 0.184375 0.846775 0.512563C0.41777 0.840752 0.176758 1.28587 0.176758 1.75V13.4167C0.176758 13.5714 0.257095 13.7197 0.400097 13.8291C0.543099 13.9385 0.73705 14 0.939285 14H3.22687V11.0833C3.22687 10.9286 3.3072 10.7802 3.45021 10.6709C3.59321 10.5615 3.78716 10.5 3.98939 10.5H10.0896C10.2918 10.5 10.4858 10.5615 10.6288 10.6709C10.7718 10.7802 10.8521 10.9286 10.8521 11.0833V14H13.1397C13.342 14 13.5359 13.9385 13.6789 13.8291C13.8219 13.7197 13.9022 13.5714 13.9022 13.4167V7.58333C13.9022 7.1192 13.6612 6.67408 13.2322 6.3459C12.8032 6.01771 12.2214 5.83333 11.6147 5.83333H10.8521V1.75C10.8521 1.28587 10.6111 0.840752 10.1821 0.512563C9.75312 0.184375 9.17126 0 8.56456 0H2.46434ZM4.75192 2.91667C4.75192 3.07138 4.67158 3.21975 4.52858 3.32915C4.38558 3.43854 4.19163 3.5 3.98939 3.5C3.78716 3.5 3.59321 3.43854 3.45021 3.32915C3.3072 3.21975 3.22687 3.07138 3.22687 2.91667C3.22687 2.76196 3.3072 2.61358 3.45021 2.50419C3.59321 2.39479 3.78716 2.33333 3.98939 2.33333C4.19163 2.33333 4.38558 2.39479 4.52858 2.50419C4.67158 2.61358 4.75192 2.76196 4.75192 2.91667V2.91667ZM4.75192 5.83333C4.75192 5.98804 4.67158 6.13642 4.52858 6.24581C4.38558 6.35521 4.19163 6.41667 3.98939 6.41667C3.78716 6.41667 3.59321 6.35521 3.45021 6.24581C3.3072 6.13642 3.22687 5.98804 3.22687 5.83333C3.22687 5.67862 3.3072 5.53025 3.45021 5.42085C3.59321 5.31146 3.78716 5.25 3.98939 5.25C4.19163 5.25 4.38558 5.31146 4.52858 5.42085C4.67158 5.53025 4.75192 5.67862 4.75192 5.83333V5.83333ZM4.75192 8.75C4.75192 8.90471 4.67158 9.05308 4.52858 9.16248C4.38558 9.27188 4.19163 9.33333 3.98939 9.33333C3.78716 9.33333 3.59321 9.27188 3.45021 9.16248C3.3072 9.05308 3.22687 8.90471 3.22687 8.75C3.22687 8.59529 3.3072 8.44692 3.45021 8.33752C3.59321 8.22812 3.78716 8.16667 3.98939 8.16667C4.19163 8.16667 4.38558 8.22812 4.52858 8.33752C4.67158 8.44692 4.75192 8.59529 4.75192 8.75ZM7.80203 2.91667C7.80203 3.07138 7.72169 3.21975 7.57869 3.32915C7.43569 3.43854 7.24174 3.5 7.0395 3.5C6.83727 3.5 6.64332 3.43854 6.50031 3.32915C6.35731 3.21975 6.27698 3.07138 6.27698 2.91667C6.27698 2.76196 6.35731 2.61358 6.50031 2.50419C6.64332 2.39479 6.83727 2.33333 7.0395 2.33333C7.24174 2.33333 7.43569 2.39479 7.57869 2.50419C7.72169 2.61358 7.80203 2.76196 7.80203 2.91667V2.91667ZM7.80203 5.83333C7.80203 5.98804 7.72169 6.13642 7.57869 6.24581C7.43569 6.35521 7.24174 6.41667 7.0395 6.41667C6.83727 6.41667 6.64332 6.35521 6.50031 6.24581C6.35731 6.13642 6.27698 5.98804 6.27698 5.83333C6.27698 5.67862 6.35731 5.53025 6.50031 5.42085C6.64332 5.31146 6.83727 5.25 7.0395 5.25C7.24174 5.25 7.43569 5.31146 7.57869 5.42085C7.72169 5.53025 7.80203 5.67862 7.80203 5.83333V5.83333ZM7.80203 8.75C7.80203 8.90471 7.72169 9.05308 7.57869 9.16248C7.43569 9.27188 7.24174 9.33333 7.0395 9.33333C6.83727 9.33333 6.64332 9.27188 6.50031 9.16248C6.35731 9.05308 6.27698 8.90471 6.27698 8.75C6.27698 8.59529 6.35731 8.44692 6.50031 8.33752C6.64332 8.22812 6.83727 8.16667 7.0395 8.16667C7.24174 8.16667 7.43569 8.22812 7.57869 8.33752C7.72169 8.44692 7.80203 8.59529 7.80203 8.75ZM10.8521 8.75C10.8521 8.90471 10.7718 9.05308 10.6288 9.16248C10.4858 9.27188 10.2918 9.33333 10.0896 9.33333C9.88738 9.33333 9.69342 9.27188 9.55042 9.16248C9.40742 9.05308 9.32708 8.90471 9.32708 8.75C9.32708 8.59529 9.40742 8.44692 9.55042 8.33752C9.69342 8.22812 9.88738 8.16667 10.0896 8.16667C10.2918 8.16667 10.4858 8.22812 10.6288 8.33752C10.7718 8.44692 10.8521 8.59529 10.8521 8.75ZM9.32708 14V11.6667H7.80661V14H9.32708ZM6.28155 14V11.6667H4.75192V14H6.28155Z" fill="white"/>
</svg>
