<svg width="18" height="24" viewBox="0 0 18 24" fill="none" xmlns="http://www.w3.org/2000/svg">
<path d="M8.73292 0.435547C13.5562 0.435547 17.4658 4.68605 17.4658 9.92979C17.4658 13.9417 14.8728 18.3139 9.754 23.0932C9.46937 23.359 9.10647 23.505 8.73124 23.5047C8.35601 23.5043 7.99335 23.3576 7.70915 23.0913L7.37058 22.7719C2.47836 18.1172 0 13.8521 0 9.92979C0 4.68605 3.90966 0.435547 8.73292 0.435547ZM8.73292 6.27816C7.8421 6.27816 6.98778 6.66289 6.35788 7.3477C5.72798 8.03251 5.3741 8.96132 5.3741 9.92979C5.3741 10.8983 5.72798 11.8271 6.35788 12.5119C6.98778 13.1967 7.8421 13.5814 8.73292 13.5814C9.62373 13.5814 10.4781 13.1967 11.108 12.5119C11.7379 11.8271 12.0917 10.8983 12.0917 9.92979C12.0917 8.96132 11.7379 8.03251 11.108 7.3477C10.4781 6.66289 9.62373 6.27816 8.73292 6.27816Z" fill="#14B5E1"/>
</svg>
