<svg width="14" height="14" viewBox="0 0 14 14" fill="none" xmlns="http://www.w3.org/2000/svg">
<path d="M3.43137 0C3.56413 0 3.67902 0.0494792 3.77604 0.148438C3.87306 0.247396 3.92157 0.364583 3.92157 0.5V7.46094L8.02696 4.10938C8.11377 4.03646 8.21589 4 8.33333 4C8.46609 4 8.58098 4.04948 8.678 4.14844C8.77502 4.2474 8.82353 4.36458 8.82353 4.5V7.46094L12.9289 4.10938C13.0157 4.03646 13.1179 4 13.2353 4C13.3681 4 13.4829 4.04948 13.58 4.14844C13.677 4.2474 13.7255 4.36458 13.7255 4.5V13.5C13.7255 13.6354 13.677 13.7526 13.58 13.8516C13.4829 13.9505 13.3681 14 13.2353 14H0.490196C0.357435 14 0.242545 13.9505 0.145527 13.8516C0.048509 13.7526 0 13.6354 0 13.5V0.5C0 0.364583 0.048509 0.247396 0.145527 0.148438C0.242545 0.0494792 0.357435 0 0.490196 0H3.43137Z" fill="white"/>
</svg>
