<svg width="15" height="14" viewBox="0 0 15 14" fill="none" xmlns="http://www.w3.org/2000/svg">
<path d="M2.53137 1.75H12.9988C13.41 1.75 13.7465 1.35625 13.7465 0.875C13.7465 0.39375 13.41 0 12.9988 0H2.53137C2.12014 0 1.78369 0.39375 1.78369 0.875C1.78369 1.35625 2.12014 1.75 2.53137 1.75ZM13.8661 3.325C13.7988 2.9225 13.4923 2.625 13.1334 2.625H2.39678C2.0379 2.625 1.73135 2.9225 1.66406 3.325L0.916388 7.7C0.826667 8.2425 1.17807 8.75 1.64911 8.75H1.78369V13.125C1.78369 13.6063 2.12014 14 2.53137 14H8.51276C8.92399 14 9.26044 13.6063 9.26044 13.125V8.75H12.2511V13.125C12.2511 13.6063 12.5876 14 12.9988 14C13.41 14 13.7465 13.6063 13.7465 13.125V8.75H13.8811C14.3521 8.75 14.7035 8.2425 14.6138 7.7L13.8661 3.325V3.325ZM7.76509 12.25H3.27904V8.75H7.76509V12.25Z" fill="white"/>
</svg>
