<svg width="28" height="25" viewBox="0 0 28 25" fill="none" xmlns="http://www.w3.org/2000/svg">
<path d="M13.7143 0.75C13.2002 0.75 12.6912 0.8534 12.2163 1.0543C11.7413 1.25519 11.3098 1.54965 10.9463 1.92086C10.5828 2.29207 10.2945 2.73276 10.0978 3.21776C9.90105 3.70277 9.7998 4.2226 9.7998 4.74757C9.7998 5.27253 9.90105 5.79236 10.0978 6.27737C10.2945 6.76238 10.5828 7.20306 10.9463 7.57427C11.3098 7.94548 11.7413 8.23994 12.2163 8.44084C12.6912 8.64173 13.2002 8.74513 13.7143 8.74513C14.7524 8.74513 15.7481 8.32396 16.4822 7.57427C17.2163 6.82458 17.6287 5.80779 17.6287 4.74757C17.6287 3.68735 17.2163 2.67055 16.4822 1.92086C15.7481 1.17117 14.7524 0.75 13.7143 0.75Z" fill="#14B5E1"/>
<path d="M22.5306 2.74707C21.7512 2.74707 21.0037 3.06326 20.4525 3.62609C19.9014 4.18892 19.5918 4.95228 19.5918 5.74825C19.5918 6.54421 19.9014 7.30757 20.4525 7.8704C21.0037 8.43323 21.7512 8.74942 22.5306 8.74942C23.31 8.74942 24.0575 8.43323 24.6086 7.8704C25.1597 7.30757 25.4694 6.54421 25.4694 5.74825C25.4694 4.95228 25.1597 4.18892 24.6086 3.62609C24.0575 3.06326 23.31 2.74707 22.5306 2.74707Z" fill="#14B5E1"/>
<path d="M4.89776 2.74707C4.11835 2.74707 3.37086 3.06326 2.81973 3.62609C2.2686 4.18892 1.95898 4.95228 1.95898 5.74825C1.95898 6.54421 2.2686 7.30757 2.81973 7.8704C3.37086 8.43323 4.11835 8.74942 4.89776 8.74942C5.67718 8.74942 6.42467 8.43323 6.97579 7.8704C7.52692 7.30757 7.83654 6.54421 7.83654 5.74825C7.83654 4.95228 7.52692 4.18892 6.97579 3.62609C6.42467 3.06326 5.67718 2.74707 4.89776 2.74707Z" fill="#14B5E1"/>
<path d="M7.83691 12.7368C7.84053 12.2086 8.04855 11.7033 8.41557 11.3311C8.7826 10.9589 9.27886 10.75 9.7961 10.75H17.6328C18.1525 10.75 18.6508 10.9608 19.0182 11.336C19.3856 11.7112 19.592 12.2201 19.592 12.7508V18.7531C19.5919 19.3828 19.4954 20.0086 19.306 20.6079C18.8722 21.9658 17.9785 23.1213 16.7855 23.8669C15.5925 24.6125 14.1783 24.8994 12.7968 24.676C11.4154 24.4526 10.1571 23.7336 9.24808 22.648C8.33902 21.5625 7.83868 20.1815 7.83691 18.7531V12.7508V12.7368Z" fill="#14B5E1"/>
<path d="M5.87756 12.7508C5.87756 12.0205 6.0676 11.3382 6.40262 10.75H1.95919C1.43958 10.75 0.941251 10.9608 0.573833 11.336C0.206414 11.7112 2.71177e-07 12.2201 2.71177e-07 12.7508V17.7527C-0.000266543 18.5717 0.196361 19.3781 0.572617 20.1013C0.948872 20.8245 1.49325 21.4423 2.15793 21.9004C2.82262 22.3586 3.58728 22.643 4.38477 22.7288C5.18226 22.8146 5.98818 22.6992 6.73176 22.3926C6.16787 21.2653 5.87505 20.017 5.87756 18.7511V12.7508Z" fill="#14B5E1"/>
<path d="M21.5515 12.7508V18.7531C21.5515 20.0636 21.2439 21.3001 20.6973 22.3926C21.4408 22.6992 22.2468 22.8146 23.0443 22.7288C23.8418 22.643 24.6064 22.3586 25.2711 21.9004C25.9358 21.4423 26.4802 20.8245 26.8564 20.1013C27.2327 19.3781 27.4293 18.5717 27.429 17.7527V12.7508C27.429 12.2201 27.2226 11.7112 26.8552 11.336C26.4878 10.9608 25.9895 10.75 25.4698 10.75H21.0264C21.3595 11.3382 21.5515 12.0205 21.5515 12.7508Z" fill="#14B5E1"/>
</svg>
