<svg width="15" height="14" viewBox="0 0 15 14" fill="none" xmlns="http://www.w3.org/2000/svg">
<path d="M0.725681 6.30074V12.8642C0.725681 13.1654 0.846189 13.4543 1.06069 13.6673C1.27519 13.8803 1.56612 14 1.86947 14H1.86962L5.30135 13.9994C5.45301 13.9994 5.59845 13.9396 5.70569 13.8331C5.81293 13.7266 5.87317 13.5821 5.87317 13.4315V8.88836H9.30454V13.4315C9.30454 13.5821 9.36479 13.7266 9.47202 13.8331C9.57926 13.9396 9.7247 13.9994 9.87637 13.9994L13.3072 13.9999C13.4575 13.9999 13.6062 13.9706 13.745 13.9135C13.8838 13.8564 14.0099 13.7728 14.1161 13.6673C14.2223 13.5618 14.3066 13.4366 14.3641 13.2988C14.4216 13.161 14.4512 13.0133 14.4512 12.8641V6.30067C14.451 6.14242 14.4177 5.98595 14.3532 5.84123C14.2888 5.69651 14.1946 5.56673 14.0768 5.46018L8.35834 0.297075C8.14829 0.106016 7.87377 2.62848e-05 7.58892 4.88821e-09C7.30406 -2.6275e-05 7.02953 0.105912 6.81944 0.296933L1.09999 5.46025C0.982196 5.56682 0.888073 5.6966 0.823625 5.84132C0.759177 5.98603 0.72582 6.1425 0.725681 6.30074Z" fill="white"/>
</svg>
