<svg width="37" height="28" viewBox="0 0 37 28" fill="none" xmlns="http://www.w3.org/2000/svg">
<path d="M23.9067 14.2498C23.9067 15.6138 23.3547 16.9219 22.372 17.8863C21.3893 18.8508 20.0565 19.3926 18.6667 19.3926C17.277 19.3926 15.9442 18.8508 14.9615 17.8863C13.9788 16.9219 13.4268 15.6138 13.4268 14.2498C13.4268 12.8858 13.9788 11.5777 14.9615 10.6132C15.9442 9.64877 17.277 9.10693 18.6667 9.10693C20.0565 9.10693 21.3893 9.64877 22.372 10.6132C23.3547 11.5777 23.9067 12.8858 23.9067 14.2498V14.2498Z" stroke="#14B5E1" stroke-width="2.5" stroke-linecap="round" stroke-linejoin="round"/>
<path d="M2 14.25C4.22525 7.29514 10.8469 2.25 18.6667 2.25C26.4882 2.25 33.1081 7.29514 35.3333 14.25C33.1081 21.2049 26.4882 26.25 18.6667 26.25C10.8469 26.25 4.22525 21.2049 2 14.25V14.25Z" stroke="#14B5E1" stroke-width="3" stroke-linecap="round" stroke-linejoin="round"/>
</svg>
