<svg width="15" height="14" viewBox="0 0 15 14" fill="none" xmlns="http://www.w3.org/2000/svg">
<path d="M12.7253 0H5.51461C4.71198 0 4.06251 0.6293 4.06251 1.407V5.3529L0.665599 8.6023C0.563818 8.69984 0.494237 8.82447 0.465686 8.96039C0.437136 9.09631 0.450903 9.23738 0.50524 9.36571C0.559578 9.49403 0.652036 9.60382 0.770881 9.68114C0.889726 9.75847 1.0296 9.79983 1.17275 9.8V13.3C1.17275 13.4857 1.24886 13.6637 1.38435 13.795C1.51983 13.9263 1.70359 14 1.89519 14H13.4542C13.6458 14 13.8296 13.9263 13.9651 13.795C14.1005 13.6637 14.1767 13.4857 14.1767 13.3V1.4063C14.1767 0.6293 13.5279 0 12.7253 0ZM6.89592 9.1777V12.6H2.61763V8.7024L4.77556 6.6381L6.89592 8.7402V9.1777V9.1777ZM8.39715 4.9H6.95227V3.5H8.39715V4.9ZM11.2869 10.5H9.84202V9.1H11.2869V10.5ZM11.2869 7.7H9.84202V6.3H11.2869V7.7ZM11.2869 4.9H9.84202V3.5H11.2869V4.9Z" fill="white"/>
</svg>
