<svg width="36" height="36" viewBox="0 0 36 36" fill="none" xmlns="http://www.w3.org/2000/svg">
<path d="M0.499998 18C0.499999 8.33502 8.33502 0.500001 18 0.500002C27.665 0.500003 35.5 8.33502 35.5 18C35.5 27.665 27.665 35.5 18 35.5C8.33501 35.5 0.499997 27.665 0.499998 18Z" stroke="#14B5E1"/>
<path fill-rule="evenodd" clip-rule="evenodd" d="M17.8093 10.3357C17.9157 10.4418 18.0001 10.5679 18.0577 10.7067C18.1153 10.8455 18.1449 10.9944 18.1449 11.1447C18.1449 11.2949 18.1153 11.4438 18.0577 11.5826C18.0001 11.7214 17.9157 11.8475 17.8093 11.9536L11.7603 18.0003L17.8093 24.047C17.9155 24.1532 17.9998 24.2793 18.0573 24.4181C18.1148 24.5569 18.1443 24.7057 18.1443 24.856C18.1443 25.0062 18.1148 25.155 18.0573 25.2938C17.9998 25.4326 17.9155 25.5587 17.8093 25.6649C17.703 25.7712 17.5769 25.8554 17.4381 25.9129C17.2993 25.9704 17.1505 26 17.0003 26C16.8501 26 16.7013 25.9704 16.5625 25.9129C16.4237 25.8554 16.2976 25.7712 16.1913 25.6649L9.33568 18.8093C9.22928 18.7031 9.14485 18.577 9.08725 18.4382C9.02965 18.2994 9 18.1506 9 18.0003C9 17.85 9.02965 17.7012 9.08725 17.5624C9.14485 17.4236 9.22928 17.2975 9.33568 17.1913L16.1913 10.3357C16.2975 10.2293 16.4236 10.1449 16.5624 10.0873C16.7012 10.0297 16.85 10 17.0003 10C17.1506 10 17.2994 10.0297 17.4382 10.0873C17.577 10.1449 17.7031 10.2293 17.8093 10.3357Z" fill="#14B5E1"/>
<path fill-rule="evenodd" clip-rule="evenodd" d="M10.1445 18.0003C10.1445 17.6972 10.2649 17.4066 10.4792 17.1923C10.6935 16.978 10.9841 16.8577 11.2871 16.8577L26.141 16.8577C26.4441 16.8577 26.7347 16.9781 26.949 17.1923C27.1633 17.4066 27.2837 17.6972 27.2837 18.0003C27.2837 18.3033 27.1633 18.5939 26.949 18.8082C26.7347 19.0225 26.4441 19.1429 26.141 19.1429L11.2871 19.1429C10.9841 19.1429 10.6935 19.0225 10.4792 18.8082C10.2649 18.5939 10.1445 18.3033 10.1445 18.0003Z" fill="#14B5E1"/>
</svg>
