<svg width="23" height="28" viewBox="0 0 23 28" fill="none" xmlns="http://www.w3.org/2000/svg">
<path fill-rule="evenodd" clip-rule="evenodd" d="M0.0249023 2.40991C0.0249023 1.58148 0.696475 0.909912 1.5249 0.909912H20.0116C20.5499 0.910114 21.0777 1.0637 21.5319 1.35268C21.9862 1.64167 22.3487 2.05409 22.577 2.54164C22.8053 3.0292 22.89 3.57172 22.8211 4.10568C22.7523 4.63964 22.5327 5.14291 22.1881 5.55658L18.1441 10.4099L22.1879 15.263C22.5325 15.6767 22.7523 16.1802 22.8211 16.7141C22.89 17.2481 22.8053 17.7906 22.577 18.2782C22.3487 18.7657 21.9862 19.1782 21.5319 19.4671C21.0777 19.7561 20.5505 19.9097 20.0121 19.9099H3.0249V26.4099C3.0249 27.2383 2.35333 27.9099 1.5249 27.9099C0.696475 27.9099 0.0249023 27.2383 0.0249023 26.4099V2.40991ZM3.0249 16.9099H19.6552L15.0392 11.3701C14.5757 10.8139 14.5757 10.0059 15.0392 9.44969L19.6552 3.90991H3.0249V16.9099Z" fill="#4CAF4C"/>
</svg>
