<svg width="32" height="32" viewBox="0 0 32 32" fill="none" xmlns="http://www.w3.org/2000/svg">
<circle cx="16" cy="16" r="16" fill="#4CAF4C"/>
<path d="M11.7308 9.73046C11.7308 10.6493 11.0686 11.4402 9.86448 11.4402C8.73124 11.4402 8 10.6943 8 9.77545C8 8.83235 8.70886 8 9.86541 8C11.022 8 11.7084 8.78736 11.7308 9.73046ZM8 23.5742V12.3262H11.7308V23.5742H8Z" fill="white"/>
<path d="M13.5961 16.1709C13.5961 14.8341 13.5485 13.7171 13.501 12.7524H16.8531L17.0191 14.2432H17.09C17.562 13.5415 18.7185 12.5127 20.6548 12.5127C23.0164 12.5127 24.7886 13.9793 24.7886 17.1348V23.5738H21.0578V17.6375C21.0578 16.2583 20.4916 15.2062 19.1924 15.2062C18.2018 15.2062 17.7056 15.9503 17.4454 16.5637C17.3503 16.7835 17.3269 17.0898 17.3269 17.3969V23.5738H13.5961V16.1709Z" fill="white"/>
</svg>
