<svg width="64" height="64" viewBox="0 0 64 64" fill="none" xmlns="http://www.w3.org/2000/svg">
<path fill-rule="evenodd" clip-rule="evenodd" d="M11.2917 1.65628C13.4126 -0.468921 17.0183 -0.666765 19.115 1.75248L29.0195 13.1852C29.0406 13.2077 29.0614 13.2306 29.0817 13.2541C30.9775 15.4427 30.6099 18.6361 28.6802 20.5751L28.677 20.5783L25.1098 24.1481C28.5551 29.9221 33.3781 34.7521 39.147 38.2056L42.722 34.6254C42.7223 34.6251 42.7218 34.6256 42.722 34.6254C44.6517 32.6917 47.8346 32.3202 50.0208 34.1971L61.569 44.1103C64.0083 46.2058 63.814 49.829 61.6863 51.9567L53.4153 60.2423C50.3714 63.2899 45.7462 64.2576 41.9185 62.3981C24.0283 53.7261 9.59029 39.2676 0.943791 21.3651C-0.912203 17.5364 0.0543396 12.9124 3.09599 9.86676C3.09614 9.8666 3.09583 9.86691 3.09599 9.86676L11.2917 1.65628C11.2918 1.65617 11.2916 1.65639 11.2917 1.65628ZM38.6694 38.6848C38.6738 38.6801 38.6783 38.6755 38.6828 38.671L38.6694 38.6848ZM24.6337 24.6237L24.6478 24.61C24.6432 24.6146 24.6385 24.6192 24.6337 24.6237ZM25.7665 16.1786C25.7581 16.1692 25.7499 16.1599 25.7417 16.1504L15.7756 4.64661C15.7756 4.6465 15.7757 4.64672 15.7756 4.64661C15.5743 4.41474 14.9675 4.22865 14.4196 4.77785L6.22349 12.9886C4.38793 14.8264 3.95744 17.4537 4.92116 19.4395L4.92298 19.4432C13.1368 36.4499 26.8525 50.1848 43.8477 58.4224C45.8293 59.3851 48.4532 58.9569 50.2878 57.1204C50.288 57.1203 50.2877 57.1206 50.2878 57.1204L58.5602 48.8334C59.1133 48.2802 58.9256 47.6652 58.6901 47.4628L47.1424 37.55C46.9131 37.3532 46.3425 37.2531 45.8505 37.7463L41.8449 41.7577C41.3079 42.3108 40.6062 42.6754 39.8443 42.7966C39.0723 42.9195 38.2813 42.7856 37.5927 42.4154C37.5737 42.4052 37.5549 42.3947 37.5362 42.384C30.6295 38.4068 24.9004 32.6701 20.9321 25.7582L20.9021 25.7042C20.5319 25.0154 20.3978 24.2241 20.5205 23.4518C20.6415 22.6898 21.0058 21.9878 21.5585 21.4504L25.548 17.458C25.5483 17.4576 25.5476 17.4584 25.548 17.458C26.0235 16.9791 25.9508 16.4286 25.7665 16.1786Z" fill="#4CAF4C"/>
</svg>
