<svg width="65" height="52" viewBox="0 0 65 52" fill="none" xmlns="http://www.w3.org/2000/svg">
<path fill-rule="evenodd" clip-rule="evenodd" d="M8.97794 4.86405C6.95762 4.86405 5.29545 6.52622 5.29545 8.54654V43.8984C5.29545 45.9188 6.95762 47.5809 8.97794 47.5809H56.1138C58.1341 47.5809 59.7963 45.9188 59.7963 43.8984V8.54654C59.7963 6.52622 58.1341 4.86405 56.1138 4.86405H8.97794ZM0.876465 8.54654C0.876465 4.08568 4.51708 0.445068 8.97794 0.445068H56.1138C60.5747 0.445068 64.2153 4.08568 64.2153 8.54654V43.8984C64.2153 48.3593 60.5747 51.9999 56.1138 51.9999H8.97794C4.51708 51.9999 0.876465 48.3593 0.876465 43.8984V8.54654Z" fill="#4CAF4C"/>
<path fill-rule="evenodd" clip-rule="evenodd" d="M1.27606 7.27905C1.97584 6.27936 3.35353 6.03624 4.35321 6.73602L32.5461 26.471L60.7389 6.73602C61.7386 6.03624 63.1163 6.27936 63.8161 7.27905C64.5158 8.27873 64.2727 9.65642 63.273 10.3562L33.8131 30.9781C33.0523 31.5107 32.0398 31.5107 31.279 30.9781L1.81909 10.3562C0.819403 9.65642 0.576282 8.27873 1.27606 7.27905Z" fill="#4CAF4C"/>
</svg>
