<svg width="1528" height="360" viewBox="0 0 1528 360" fill="none" xmlns="http://www.w3.org/2000/svg">
<path d="M257.97 0H313.089V259.821H257.97V0Z" fill="white"/>
<path d="M617.208 164.968V259.821H560.722V166.685C560.722 146.466 549.194 133.221 531.778 133.221C514.328 133.221 502.835 146.817 502.835 167.035V259.786H446.699V166.685C446.699 146.466 434.856 133.221 417.405 133.221C399.955 133.221 388.462 146.817 388.462 167.035V259.786H333.307V85.427H388.427V99.7233C400.27 88.8959 415.618 82.6238 430.966 82.6238C453.287 82.6238 471.789 92.0495 483.983 107.047C496.878 92.0495 517.447 82.6238 545.374 82.6238C588.965 82.6588 617.208 118.224 617.208 164.968Z" fill="white"/>
<path d="M628.737 172.641C628.737 123.13 669.209 82.6589 718.722 82.6589C768.585 82.6589 808.707 123.13 808.707 172.641C808.707 222.153 768.585 262.624 718.722 262.624C669.174 262.589 628.737 222.153 628.737 172.641ZM755.655 172.641C755.655 149.62 741.709 134.273 720.79 134.273C699.87 134.273 685.924 149.62 685.924 172.641C685.924 195.663 699.87 211.01 720.79 211.01C741.709 210.975 755.655 195.663 755.655 172.641Z" fill="white"/>
<path d="M808.006 224.956L842.171 194.261C842.171 194.261 863.44 215.18 892.735 215.18C905.63 215.18 913.654 211.676 913.654 207.506C913.654 197.029 812.877 196.013 812.877 137.426C812.877 104.629 840.068 82.6589 886.112 82.6589C939.129 82.6589 969.824 120.327 969.824 120.327L935.66 151.022C935.66 151.022 914.039 130.103 885.096 130.103C872.201 130.103 863.826 133.607 863.826 137.777C863.826 148.254 964.954 149.27 964.954 207.857C964.954 240.654 937.412 262.624 891.368 262.624C838.351 262.589 808.006 224.956 808.006 224.956Z" fill="white"/>
<path d="M971.087 172.193C971.087 122.682 1011.56 82.2107 1061.07 82.2107C1110.93 82.2107 1151.06 122.682 1151.06 172.193C1151.06 221.705 1110.93 262.176 1061.07 262.176C1011.56 262.176 971.087 221.705 971.087 172.193ZM1098.04 172.193C1098.04 149.172 1084.09 133.824 1063.17 133.824C1042.25 133.824 1028.31 149.172 1028.31 172.193C1028.31 195.214 1042.25 210.562 1063.17 210.562C1084.09 210.562 1098.04 195.214 1098.04 172.193Z" fill="white"/>
<path d="M1330.32 164.512V259.365H1273.84V166.264C1273.84 146.046 1262.35 132.801 1244.9 132.801C1227.45 132.801 1215.95 146.396 1215.95 166.614V259.365H1160.83V85.0061H1215.95V99.3024C1227.8 88.475 1243.14 82.2029 1258.14 82.2029C1302.08 82.2029 1330.32 117.768 1330.32 164.512Z" fill="white"/>
<path d="M1527.96 182.802C1527.96 182.802 1517.86 244.017 1452.48 260.03C1420.17 267.389 1381.9 255.755 1359.44 226.322C1352.09 216.616 1346.9 205.298 1343.96 193.104C1332.43 144.924 1362.04 96.2537 1410.53 84.6555C1458.71 73.1274 1507.46 103.086 1518.98 151.231C1519.48 153.264 1520.14 154.525 1519.79 156.067L1411.37 203.511C1418.73 210.344 1428.68 214.443 1440.91 211.5C1468.74 204.842 1480.23 179.509 1480.23 179.509L1527.96 182.802ZM1394.41 165.633L1451.95 140.754C1441.12 131.504 1426.2 128.981 1414.81 133.852C1405.03 137.986 1396.97 149.234 1394.8 161.218C1394.62 160.552 1394.27 162.059 1394.41 165.633Z" fill="white"/>
<path d="M413.342 309.403C413.377 309.262 413.447 309.122 413.552 308.947C413.692 308.772 413.832 308.632 414.007 308.492C414.183 308.351 414.393 308.246 414.603 308.176C414.813 308.106 414.989 308.071 415.199 308.071H423.994C424.379 308.071 424.73 308.176 425.01 308.421C425.291 308.667 425.501 308.877 425.641 309.052L426.517 311.014L444.598 357.653C444.773 358.108 444.738 358.493 444.493 358.774C444.248 359.054 443.792 359.194 443.196 359.194H433.315C432.789 359.194 432.369 359.089 432.088 358.914C431.808 358.704 431.563 358.388 431.423 357.933C430.967 356.777 430.512 355.585 430.091 354.429C429.671 353.273 429.215 352.116 428.795 350.925H410.503C410.083 352.081 409.627 353.273 409.172 354.429C408.716 355.585 408.296 356.741 407.84 357.933C407.56 358.774 406.964 359.194 406.088 359.194H395.926C395.506 359.194 395.12 359.089 394.84 358.844C394.56 358.634 394.49 358.283 394.7 357.828L413.342 309.403ZM419.579 324.154C419.158 325.311 418.703 326.607 418.247 327.939C417.792 329.305 417.371 330.672 416.916 332.038C416.495 333.405 416.04 334.771 415.584 336.138C415.129 337.47 414.708 338.731 414.253 339.922H424.835L419.579 324.154Z" fill="white"/>
<path d="M480.551 322.507C479.395 321.666 478.133 321.035 476.802 320.579C475.47 320.124 474.033 319.879 472.527 319.879C470.634 319.879 468.882 320.229 467.306 320.965C465.729 321.701 464.362 322.682 463.206 323.908C462.085 325.135 461.173 326.606 460.543 328.253C459.912 329.935 459.562 331.687 459.562 333.579C459.562 335.471 459.877 337.223 460.543 338.87C461.173 340.517 462.085 341.954 463.206 343.18C464.327 344.406 465.694 345.388 467.306 346.088C468.882 346.789 470.634 347.14 472.527 347.14C473.333 347.14 474.139 347.07 474.909 346.964C475.715 346.859 476.556 346.719 477.432 346.509V337.469C477.432 337.048 477.573 336.663 477.818 336.382C478.063 336.102 478.449 335.962 478.939 335.962H488.295C488.645 335.962 488.996 336.102 489.381 336.382C489.767 336.663 489.977 337.013 489.977 337.469V354.148C489.977 354.778 489.662 355.269 488.996 355.654C487.91 356.39 486.718 357.021 485.422 357.546C484.125 358.072 482.759 358.528 481.322 358.843C479.885 359.193 478.449 359.439 477.012 359.614C475.54 359.789 474.139 359.859 472.772 359.859C470.354 359.859 468.006 359.544 465.764 358.913C463.521 358.282 461.419 357.406 459.491 356.25C457.529 355.094 455.777 353.727 454.165 352.115C452.553 350.503 451.187 348.751 450.065 346.824C448.909 344.897 448.033 342.795 447.402 340.552C446.772 338.31 446.456 335.962 446.456 333.544C446.456 331.126 446.772 328.779 447.402 326.536C448.033 324.294 448.909 322.191 450.065 320.229C451.222 318.267 452.588 316.48 454.165 314.868C455.777 313.256 457.529 311.889 459.491 310.733C461.454 309.612 463.556 308.701 465.764 308.07C468.006 307.439 470.354 307.124 472.772 307.124C475.54 307.124 478.133 307.509 480.586 308.28C483.039 309.051 485.317 310.172 487.489 311.609C487.875 311.819 488.19 312.135 488.4 312.52C488.61 312.906 488.575 313.326 488.26 313.817L482.688 321.876C482.373 322.226 482.093 322.471 481.777 322.612C481.462 322.752 481.042 322.822 480.551 322.507Z" fill="white"/>
<path d="M501.434 309.648C501.434 309.157 501.574 308.772 501.819 308.492C502.064 308.211 502.45 308.071 502.94 308.071H525.191C527.574 308.071 529.782 308.527 531.849 309.403C533.916 310.279 535.704 311.505 537.245 313.012C538.787 314.518 540.014 316.305 540.89 318.338C541.766 320.37 542.221 322.543 542.221 324.82C542.221 326.397 542.011 327.869 541.59 329.27C541.17 330.672 540.574 332.003 539.803 333.23C539.032 334.456 538.156 335.577 537.105 336.559C536.054 337.54 534.933 338.416 533.671 339.116L542.536 355.795C542.712 356.111 542.887 356.496 543.167 356.917C543.412 357.337 543.553 357.723 543.553 358.038C543.553 358.423 543.448 358.704 543.202 358.879C542.957 359.089 542.642 359.159 542.221 359.159H530.412C530.027 359.159 529.677 359.054 529.361 358.809C529.046 358.599 528.835 358.283 528.765 357.863L520.391 342.13H514.819V357.653C514.819 358.634 514.294 359.124 513.242 359.124H503.01C502.555 359.124 502.169 359.019 501.924 358.774C501.644 358.529 501.504 358.143 501.504 357.653V309.648H501.434ZM528.415 324.925C528.415 324.224 528.275 323.559 528.03 322.858C527.784 322.157 527.434 321.526 526.943 320.966C526.488 320.405 525.927 319.915 525.296 319.529C524.666 319.144 523.93 318.898 523.159 318.758C522.528 318.723 521.897 318.688 521.337 318.653C520.776 318.618 520.145 318.618 519.48 318.618H514.714V331.267H521.056C521.477 331.267 521.827 331.267 522.143 331.232C522.458 331.197 522.808 331.162 523.194 331.127C524 331.022 524.736 330.812 525.366 330.427C525.997 330.041 526.558 329.586 526.978 329.025C527.399 328.464 527.749 327.834 527.995 327.133C528.31 326.397 528.415 325.661 528.415 324.925Z" fill="white"/>
<path d="M548.845 333.685C548.845 331.267 549.16 328.919 549.791 326.677C550.422 324.434 551.298 322.332 552.454 320.37C553.611 318.407 554.977 316.62 556.589 315.008C558.201 313.397 559.953 312.03 561.915 310.874C563.877 309.752 565.98 308.841 568.223 308.211C570.465 307.58 572.813 307.265 575.231 307.265C577.648 307.265 579.961 307.58 582.239 308.211C584.481 308.841 586.584 309.717 588.546 310.874C590.508 312.03 592.296 313.397 593.872 315.008C595.484 316.62 596.851 318.407 598.007 320.37C599.129 322.332 600.04 324.434 600.67 326.677C601.301 328.919 601.616 331.267 601.616 333.685C601.616 336.102 601.301 338.45 600.67 340.693C600.04 342.935 599.164 345.038 598.007 346.965C596.886 348.892 595.484 350.679 593.872 352.256C592.26 353.868 590.473 355.234 588.546 356.391C586.584 357.547 584.481 358.423 582.239 359.054C579.996 359.684 577.648 360 575.231 360C572.778 360 570.465 359.684 568.223 359.054C565.98 358.423 563.877 357.547 561.915 356.391C559.953 355.234 558.201 353.868 556.589 352.256C554.977 350.644 553.611 348.892 552.454 346.965C551.298 345.038 550.422 342.935 549.791 340.693C549.16 338.45 548.845 336.102 548.845 333.685ZM562.196 333.65C562.196 335.542 562.511 337.329 563.142 338.976C563.772 340.623 564.683 342.059 565.84 343.286C566.996 344.512 568.363 345.493 569.939 346.194C571.516 346.895 573.268 347.245 575.161 347.245C577.053 347.245 578.805 346.895 580.417 346.194C581.994 345.493 583.395 344.547 584.552 343.286C585.708 342.059 586.619 340.623 587.25 338.976C587.88 337.329 588.231 335.542 588.231 333.65C588.231 331.758 587.915 330.006 587.25 328.324C586.584 326.642 585.708 325.205 584.552 323.979C583.395 322.752 582.029 321.771 580.417 321.035C578.805 320.335 577.088 319.984 575.161 319.984C573.268 319.984 571.516 320.335 569.939 321.035C568.363 321.736 566.996 322.717 565.84 323.979C564.683 325.205 563.772 326.677 563.142 328.324C562.511 329.97 562.196 331.758 562.196 333.65Z" fill="white"/>
<path d="M611.357 309.648C611.357 309.157 611.497 308.772 611.742 308.492C611.987 308.211 612.373 308.071 612.863 308.071H647.028C647.519 308.071 647.939 308.211 648.185 308.527C648.465 308.842 648.605 309.227 648.605 309.718V318.233C648.605 318.618 648.465 319.004 648.185 319.354C647.904 319.704 647.519 319.88 646.993 319.88H624.672V328.429H641.912C642.333 328.429 642.718 328.534 642.999 328.745C643.279 328.955 643.419 329.305 643.419 329.761V337.189C643.419 337.505 643.279 337.82 643.034 338.135C642.788 338.451 642.403 338.591 641.947 338.591H624.672V347.421H647.834C648.885 347.421 649.376 347.946 649.376 348.998V357.653C649.376 357.863 649.271 358.073 649.096 358.283C648.991 358.914 648.535 359.229 647.694 359.229H612.863C612.408 359.229 612.022 359.124 611.777 358.879C611.497 358.634 611.357 358.248 611.357 357.758V309.648V309.648Z" fill="white"/>
<path d="M654.246 358.317C654.421 357.967 654.631 357.616 654.807 357.266C655.017 356.916 655.227 356.53 655.472 356.18L670.96 333.018C668.332 329.059 665.704 325.134 663.111 321.245C660.518 317.356 657.925 313.431 655.262 309.472C655.122 309.296 655.017 309.121 654.947 308.946C654.877 308.771 654.807 308.596 654.807 308.42C654.842 308.245 654.982 308.14 655.192 308.175C655.402 308.175 655.648 308.14 655.858 308.035H667.842C668.683 308.035 669.349 308.455 669.839 309.331L678.284 322.016L686.834 309.331C687.325 308.455 687.99 308.035 688.831 308.035H699.659C699.834 308.035 700.044 308.035 700.325 308.035C700.605 308.035 700.815 308.035 701.026 308.035C701.236 308.035 701.446 308.07 701.586 308.14C701.761 308.21 701.831 308.315 701.831 308.455C701.831 308.736 701.691 309.016 701.446 309.366L685.608 333.018L701.761 357.126C702.007 357.441 702.182 357.721 702.287 358.002C702.427 358.247 702.462 358.492 702.427 358.668C702.427 359.018 702.217 359.193 701.796 359.193H689.462C689.077 359.193 688.726 359.088 688.411 358.843C688.095 358.633 687.85 358.317 687.64 357.897L678.284 344.021L669.033 357.897C668.858 358.282 668.613 358.598 668.262 358.843C667.947 359.088 667.597 359.193 667.211 359.193H655.472H654.842C654.667 359.193 654.491 359.158 654.351 359.053C654.211 358.948 654.141 358.808 654.141 358.633C654.176 358.527 654.176 358.422 654.246 358.317Z" fill="white"/>
<path d="M710.067 309.648C710.067 309.157 710.207 308.772 710.452 308.492C710.697 308.211 711.083 308.071 711.574 308.071H733.579C735.156 308.071 736.663 308.281 738.064 308.737C739.466 309.157 740.762 309.788 741.919 310.524C743.075 311.295 744.161 312.206 745.073 313.292C746.019 314.378 746.825 315.5 747.455 316.761C748.121 317.987 748.612 319.319 748.962 320.685C749.312 322.052 749.488 323.454 749.488 324.82C749.488 326.887 749.102 328.92 748.366 330.882C747.631 332.844 746.544 334.631 745.178 336.138C743.811 337.68 742.129 338.906 740.202 339.887C738.275 340.833 736.137 341.324 733.789 341.359H723.347V357.758C723.347 358.739 722.822 359.229 721.77 359.229H711.538C711.083 359.229 710.697 359.124 710.452 358.879C710.172 358.634 710.032 358.248 710.032 357.758V309.648H710.067ZM735.997 324.715C735.997 324.014 735.892 323.348 735.647 322.648C735.401 321.947 735.051 321.351 734.595 320.791C734.14 320.265 733.579 319.809 732.913 319.459C732.248 319.109 731.512 318.933 730.706 318.933H723.417V330.427H730.706C731.547 330.427 732.283 330.251 732.948 329.936C733.614 329.621 734.175 329.165 734.63 328.639C735.086 328.114 735.436 327.483 735.647 326.817C735.857 326.187 735.997 325.451 735.997 324.715Z" fill="white"/>
<path d="M755.971 333.685C755.971 331.267 756.287 328.919 756.917 326.677C757.548 324.434 758.424 322.332 759.58 320.37C760.737 318.407 762.103 316.62 763.68 315.008C765.292 313.397 767.044 312.03 769.006 310.874C770.969 309.752 773.071 308.841 775.314 308.211C777.556 307.58 779.904 307.265 782.322 307.265C784.74 307.265 787.087 307.58 789.33 308.211C791.573 308.841 793.675 309.717 795.637 310.874C797.6 312.03 799.387 313.397 800.964 315.008C802.576 316.62 803.942 318.407 805.098 320.37C806.22 322.332 807.131 324.434 807.762 326.677C808.392 328.919 808.708 331.267 808.708 333.685C808.708 336.102 808.392 338.45 807.762 340.693C807.131 342.935 806.255 345.038 805.098 346.965C803.977 348.892 802.576 350.679 800.964 352.256C799.352 353.868 797.565 355.234 795.637 356.391C793.71 357.547 791.573 358.423 789.33 359.054C787.087 359.684 784.74 360 782.322 360C779.904 360 777.556 359.684 775.314 359.054C773.071 358.423 770.969 357.547 769.006 356.391C767.044 355.234 765.257 353.868 763.68 352.256C762.103 350.644 760.702 348.892 759.58 346.965C758.424 345.038 757.548 342.935 756.917 340.693C756.287 338.45 755.971 336.102 755.971 333.685ZM769.322 333.65C769.322 335.542 769.637 337.329 770.303 338.976C770.934 340.623 771.845 342.059 773.001 343.286C774.157 344.512 775.524 345.493 777.101 346.194C778.678 346.895 780.43 347.245 782.322 347.245C784.214 347.245 785.966 346.895 787.578 346.194C789.19 345.493 790.557 344.547 791.713 343.286C792.869 342.059 793.78 340.623 794.411 338.976C795.042 337.329 795.392 335.542 795.392 333.65C795.392 331.758 795.077 330.006 794.411 328.324C793.745 326.642 792.869 325.205 791.713 323.979C790.557 322.752 789.19 321.771 787.578 321.035C786.001 320.335 784.249 319.984 782.322 319.984C780.43 319.984 778.678 320.335 777.101 321.035C775.524 321.736 774.157 322.717 773.001 323.979C771.845 325.205 770.934 326.677 770.303 328.324C769.637 330.006 769.322 331.758 769.322 333.65Z" fill="white"/>
<path d="M818.518 309.648C818.518 309.157 818.658 308.772 818.904 308.492C819.149 308.211 819.534 308.071 820.025 308.071H842.276C844.659 308.071 846.866 308.527 848.934 309.403C851.001 310.279 852.788 311.505 854.33 313.012C855.872 314.518 857.063 316.305 857.974 318.338C858.885 320.37 859.306 322.543 859.306 324.82C859.306 326.397 859.095 327.869 858.675 329.27C858.254 330.672 857.659 332.003 856.888 333.23C856.117 334.456 855.241 335.577 854.19 336.559C853.138 337.54 852.017 338.416 850.756 339.116L859.621 355.795C859.796 356.111 859.971 356.496 860.252 356.917C860.497 357.337 860.637 357.723 860.637 358.038C860.637 358.423 860.532 358.704 860.287 358.879C860.041 359.089 859.726 359.159 859.306 359.159H847.497C847.111 359.159 846.761 359.054 846.446 358.809C846.13 358.599 845.92 358.283 845.85 357.863L837.475 342.13H831.904V357.653C831.904 358.634 831.378 359.124 830.327 359.124H820.095C819.639 359.124 819.254 359.019 819.009 358.774C818.728 358.529 818.588 358.143 818.588 357.653V309.648H818.518ZM845.499 324.925C845.499 324.224 845.359 323.559 845.114 322.858C844.869 322.157 844.518 321.526 844.063 320.966C843.607 320.405 843.047 319.915 842.416 319.529C841.785 319.144 841.049 318.898 840.278 318.758C839.648 318.723 839.017 318.688 838.456 318.653C837.896 318.618 837.265 318.618 836.599 318.618H831.834V331.267H838.176C838.596 331.267 838.947 331.267 839.262 331.232C839.578 331.197 839.928 331.162 840.313 331.127C841.119 331.022 841.855 330.812 842.486 330.427C843.117 330.041 843.677 329.586 844.098 329.025C844.518 328.464 844.869 327.834 845.079 327.133C845.394 326.397 845.499 325.661 845.499 324.925Z" fill="white"/>
<path d="M865.543 309.578C865.543 309.122 865.683 308.772 865.999 308.492C866.314 308.211 866.699 308.071 867.155 308.071H904.228C904.649 308.071 904.999 308.211 905.314 308.456C905.63 308.702 905.805 309.087 905.875 309.578V318.128C905.875 318.548 905.735 318.933 905.455 319.319C905.174 319.704 904.754 319.88 904.228 319.88H892.349V357.582C892.349 358.003 892.209 358.353 891.894 358.704C891.578 359.019 891.193 359.194 890.737 359.194H880.646C880.26 359.194 879.875 359.054 879.559 358.739C879.209 358.423 879.034 358.038 879.034 357.582V319.88H867.19C866.734 319.88 866.349 319.739 866.034 319.424C865.718 319.109 865.578 318.688 865.578 318.128V309.578H865.543Z" fill="white"/>
<path d="M923.466 309.403C923.501 309.262 923.571 309.122 923.676 308.947C923.816 308.772 923.956 308.632 924.131 308.492C924.307 308.351 924.517 308.246 924.727 308.176C924.937 308.106 925.113 308.071 925.323 308.071H934.153C934.538 308.071 934.889 308.176 935.134 308.421C935.415 308.667 935.625 308.877 935.765 309.052L936.641 311.014L954.722 357.653C954.897 358.108 954.862 358.493 954.617 358.774C954.372 359.054 953.916 359.194 953.32 359.194H943.439C942.913 359.194 942.493 359.089 942.212 358.914C941.932 358.704 941.687 358.388 941.547 357.933C941.091 356.777 940.636 355.585 940.215 354.429C939.795 353.273 939.339 352.116 938.919 350.925H920.627C920.207 352.081 919.751 353.273 919.296 354.429C918.84 355.585 918.42 356.741 917.964 357.933C917.649 358.774 917.088 359.194 916.212 359.194H906.05C905.63 359.194 905.244 359.089 904.964 358.844C904.684 358.634 904.614 358.283 904.824 357.828L923.466 309.403ZM929.738 324.154C929.317 325.311 928.862 326.607 928.406 327.939C927.951 329.305 927.53 330.672 927.075 332.038C926.654 333.405 926.199 334.771 925.743 336.138C925.288 337.47 924.867 338.731 924.412 339.922H934.994L929.738 324.154Z" fill="white"/>
<path d="M997.437 311.785C997.822 311.995 998.103 312.31 998.313 312.696C998.488 313.081 998.453 313.502 998.208 313.992L992.391 322.262C992.146 322.647 991.865 322.857 991.585 322.927C991.305 322.998 990.954 322.892 990.534 322.647C989.413 321.806 988.151 321.14 986.82 320.685C985.453 320.229 984.016 319.984 982.51 319.984C980.617 319.984 978.9 320.335 977.324 321.035C975.747 321.736 974.38 322.717 973.224 323.979C972.067 325.205 971.191 326.677 970.526 328.324C969.895 329.97 969.544 331.758 969.544 333.615C969.544 335.507 969.86 337.259 970.526 338.906C971.156 340.553 972.067 341.989 973.224 343.216C974.38 344.442 975.747 345.423 977.324 346.124C978.9 346.825 980.652 347.175 982.51 347.175C984.016 347.175 985.488 346.93 986.855 346.474C988.221 346.019 989.483 345.353 990.604 344.512C991.025 344.267 991.375 344.162 991.62 344.197C991.9 344.232 992.181 344.442 992.461 344.827L998.348 353.307C998.593 353.798 998.628 354.253 998.453 354.569C998.278 354.919 997.998 355.199 997.577 355.445C995.405 356.881 993.092 358.002 990.604 358.808C988.116 359.614 985.488 360 982.72 360C980.302 360 977.954 359.684 975.712 359.054C973.469 358.423 971.367 357.547 969.439 356.391C967.477 355.234 965.725 353.868 964.113 352.256C962.501 350.644 961.135 348.892 959.978 346.965C958.822 345.038 957.946 342.935 957.315 340.693C956.685 338.45 956.369 336.102 956.369 333.685C956.369 331.267 956.685 328.919 957.315 326.677C957.946 324.434 958.822 322.332 959.978 320.37C961.135 318.407 962.501 316.62 964.113 315.008C965.725 313.397 967.477 312.03 969.439 310.874C971.402 309.752 973.504 308.841 975.712 308.211C977.954 307.58 980.302 307.265 982.72 307.265C985.488 307.265 988.081 307.65 990.534 308.421C992.987 309.227 995.264 310.313 997.437 311.785Z" fill="white"/>
<path d="M1008.47 309.577C1008.47 309.156 1008.61 308.806 1008.86 308.49C1009.11 308.175 1009.49 308.035 1009.98 308.035H1020.11C1020.46 308.035 1020.81 308.175 1021.19 308.455C1021.58 308.736 1021.79 309.086 1021.79 309.577V357.686C1021.79 358.703 1021.23 359.193 1020.11 359.193H1009.98C1008.97 359.193 1008.47 358.703 1008.47 357.686V309.577Z" fill="white"/>
<path d="M1031.88 333.685C1031.88 331.267 1032.2 328.919 1032.83 326.677C1033.46 324.434 1034.34 322.332 1035.49 320.37C1036.65 318.408 1038.01 316.62 1039.63 315.009C1041.24 313.397 1042.99 312.03 1044.95 310.874C1046.91 309.753 1049.02 308.842 1051.26 308.211C1053.5 307.58 1055.85 307.265 1058.27 307.265C1060.69 307.265 1063 307.58 1065.28 308.211C1067.52 308.842 1069.62 309.718 1071.58 310.874C1073.55 312.03 1075.33 313.397 1076.91 315.009C1078.52 316.62 1079.89 318.408 1081.04 320.37C1082.17 322.332 1083.08 324.434 1083.71 326.677C1084.34 328.919 1084.65 331.267 1084.65 333.685C1084.65 336.103 1084.34 338.45 1083.71 340.693C1083.08 342.935 1082.2 345.038 1081.04 346.965C1079.89 348.892 1078.52 350.679 1076.91 352.256C1075.3 353.868 1073.51 355.234 1071.58 356.391C1069.62 357.547 1067.52 358.423 1065.28 359.054C1063.03 359.685 1060.69 360 1058.27 360C1055.85 360 1053.5 359.685 1051.26 359.054C1049.02 358.423 1046.91 357.547 1044.95 356.391C1042.99 355.234 1041.24 353.868 1039.63 352.256C1038.01 350.644 1036.65 348.892 1035.49 346.965C1034.34 345.038 1033.46 342.935 1032.83 340.693C1032.2 338.45 1031.88 336.103 1031.88 333.685ZM1045.23 333.65C1045.23 335.542 1045.55 337.329 1046.21 338.976C1046.84 340.623 1047.76 342.059 1048.91 343.286C1050.07 344.512 1051.44 345.493 1053.01 346.194C1054.59 346.895 1056.34 347.245 1058.23 347.245C1060.13 347.245 1061.88 346.895 1063.49 346.194C1065.07 345.493 1066.47 344.547 1067.62 343.286C1068.78 342.059 1069.69 340.623 1070.32 338.976C1070.95 337.329 1071.3 335.542 1071.3 333.65C1071.3 331.758 1070.99 330.006 1070.32 328.324C1069.69 326.642 1068.78 325.205 1067.62 323.979C1066.47 322.752 1065.1 321.771 1063.49 321.036C1061.91 320.335 1060.16 319.984 1058.23 319.984C1056.34 319.984 1054.59 320.335 1053.01 321.036C1051.44 321.736 1050.07 322.717 1048.91 323.979C1047.76 325.205 1046.84 326.677 1046.21 328.324C1045.55 330.006 1045.23 331.758 1045.23 333.65ZM1055.89 294.195C1055.99 293.669 1056.24 293.284 1056.59 293.074C1056.94 292.863 1057.32 292.758 1057.71 292.758H1066.61C1066.96 292.758 1067.2 292.828 1067.38 292.969C1067.55 293.109 1067.66 293.284 1067.73 293.494C1067.8 293.704 1067.8 293.95 1067.73 294.195C1067.69 294.44 1067.59 294.721 1067.48 294.966L1064.12 302.359C1063.84 302.85 1063.56 303.235 1063.31 303.445C1063.07 303.691 1062.72 303.796 1062.26 303.796H1054.73C1054.38 303.796 1054.13 303.691 1054.03 303.516C1053.89 303.34 1053.85 303.13 1053.85 302.85C1053.85 302.605 1053.89 302.324 1053.96 302.009C1054.03 301.729 1054.1 301.448 1054.13 301.238L1055.89 294.195Z" fill="white"/>
<path d="M1094.53 309.577C1094.53 309.156 1094.67 308.806 1094.92 308.49C1095.17 308.175 1095.55 308.035 1096.04 308.035H1107.29C1107.6 308.035 1107.96 308.105 1108.31 308.28C1108.66 308.455 1108.94 308.701 1109.22 309.121C1112.13 313.816 1115.03 318.477 1117.91 323.032C1120.78 327.587 1123.69 332.247 1126.63 336.943V309.366C1126.74 308.946 1126.91 308.631 1127.19 308.385C1127.47 308.14 1127.79 308.035 1128.17 308.035H1137.99C1138.48 308.035 1138.86 308.175 1139.18 308.42C1139.49 308.701 1139.67 309.051 1139.67 309.542V357.827C1139.67 358.282 1139.53 358.633 1139.25 358.843C1138.97 359.053 1138.58 359.158 1138.13 359.158H1127.12C1126.81 359.158 1126.56 359.053 1126.32 358.843C1126.07 358.633 1125.86 358.352 1125.58 358.002C1122.53 352.956 1119.52 347.945 1116.51 343.005C1113.49 338.064 1110.48 333.053 1107.39 328.008V357.616C1107.39 358.107 1107.29 358.492 1107.04 358.738C1106.83 358.983 1106.41 359.123 1105.82 359.123H1096.04C1095.52 359.123 1095.13 358.983 1094.89 358.703C1094.64 358.422 1094.53 358.072 1094.53 357.651V309.577V309.577Z" fill="white"/>
<path d="M121.767 21.0586C54.5235 21.0586 0 75.5807 0 142.822C0 210.064 54.5235 264.586 121.767 264.586C189.01 264.586 243.534 210.064 243.534 142.822C243.534 75.5807 189.01 21.0586 121.767 21.0586ZM188.765 149.725C185.051 187.603 151.376 207.085 131.298 212.306C113.287 217.002 92.5428 212.727 88.5832 211.571C84.8338 210.449 82.3109 210.87 77.3351 213.147C68.645 217.107 61.777 212.131 61.777 212.131C61.777 212.131 54.3833 208.032 59.5694 197.414C61.7419 192.964 61.3915 189.706 59.7446 186.026C58.7634 183.854 51.3348 162.164 53.8227 143.698C56.5909 123.13 71.7986 87.3541 108.977 79.0496C134.487 71.9365 145.349 75.896 152.673 75.0901C159.996 74.2842 166.899 70.5349 171.84 70.9554C176.781 71.3409 183.789 75.896 183.929 76.9823L183.859 77.0874C185.191 77.7181 189.15 81.9229 190.061 86.408C191.043 91.2786 187.258 98.4968 187.363 105.855C187.503 113.214 192.724 123.55 188.765 149.725Z" fill="white"/>
</svg>
