<svg width="1181" height="807" viewBox="0 0 1181 807" fill="none" xmlns="http://www.w3.org/2000/svg">
<path d="M0 639.435C0 588.417 34.1132 547.059 90.9244 547.059C147.736 547.059 181.849 588.417 181.849 639.435C181.849 690.189 147.736 731.548 90.9244 731.548C34.1132 731.548 0 690.189 0 639.435ZM135.612 639.435C135.612 607.735 117.737 586.793 90.9686 586.793C64.4656 586.793 46.5905 607.735 46.5905 639.435C46.5905 670.871 64.4656 691.814 90.9686 691.814C117.737 691.814 135.612 670.871 135.612 639.435Z" fill="#E33413"/>
<path d="M238.174 529.32H195.432V729.395H238.174V529.32Z" fill="#E33413"/>
<path d="M474.179 656.382V729.44H430.332V657.699C430.332 642.113 421.394 631.927 407.855 631.927C394.316 631.927 385.378 642.42 385.378 657.962V729.396H341.796V657.699C341.796 642.113 332.593 631.927 319.054 631.927C305.515 631.927 296.578 642.42 296.578 657.962V729.396H253.836V595.09H296.578V606.11C305.781 597.769 317.683 592.939 329.585 592.939C346.885 592.939 361.264 600.183 370.733 611.73C380.732 600.183 396.705 592.939 418.385 592.939C452.277 592.983 474.179 620.38 474.179 656.382Z" fill="#E33413"/>
<path d="M483.117 662.264C483.117 624.11 514.531 592.981 552.936 592.981C591.651 592.981 622.756 624.154 622.756 662.264C622.756 700.417 591.651 731.546 552.936 731.546C514.531 731.546 483.117 700.417 483.117 662.264ZM581.652 662.264C581.652 644.526 570.812 632.716 554.574 632.716C538.335 632.716 527.495 644.526 527.495 662.264C527.495 680.001 538.335 691.812 554.574 691.812C570.812 691.812 581.652 680.001 581.652 662.264Z" fill="#E33413"/>
<path d="M622.269 702.57L648.772 678.949C648.772 678.949 665.275 695.062 688.018 695.062C698.017 695.062 704.256 692.384 704.256 689.135C704.256 681.056 626.03 680.266 626.03 635.175C626.03 609.93 647.135 593.026 682.885 593.026C724.033 593.026 747.837 622.048 747.837 622.048L721.334 645.669C721.334 645.669 704.565 629.555 682.089 629.555C672.089 629.555 665.585 632.234 665.585 635.483C665.585 643.517 744.076 644.351 744.076 689.442C744.076 714.687 722.706 731.591 686.956 731.591C645.807 731.547 622.269 702.57 622.269 702.57Z" fill="#E33413"/>
<path d="M748.81 661.957C748.81 623.847 780.224 592.675 818.629 592.675C857.344 592.675 888.449 623.847 888.449 661.957C888.449 700.111 857.344 731.239 818.629 731.239C780.224 731.239 748.81 700.067 748.81 661.957ZM847.345 661.957C847.345 644.219 836.504 632.409 820.266 632.409C804.028 632.409 793.188 644.219 793.188 661.957C793.188 679.695 804.028 691.505 820.266 691.505C836.504 691.461 847.345 679.651 847.345 661.957Z" fill="#4CAF4C"/>
<path d="M1027.6 656.03V729.088H983.754V657.391C983.754 641.805 974.816 631.619 961.277 631.619C947.738 631.619 938.8 642.112 938.8 657.654V729.088H896.059V594.826H938.8V605.846C948.003 597.504 959.905 592.675 971.542 592.675C1005.7 592.631 1027.6 620.028 1027.6 656.03Z" fill="#4CAF4C"/>
<path d="M1181 670.122C1181 670.122 1173.17 717.276 1122.42 729.57C1097.33 735.233 1067.64 726.277 1050.21 703.622C1044.5 696.158 1040.48 687.421 1038.22 678.025C1029.28 640.925 1052.25 603.474 1089.9 594.518C1127.29 585.649 1165.12 608.699 1174.05 645.799C1174.45 647.379 1174.94 648.345 1174.67 649.531L1090.52 686.06C1096.23 691.328 1103.97 694.446 1113.44 692.206C1135.03 687.07 1143.97 667.576 1143.97 667.576L1181 670.122ZM1077.33 656.863L1121.98 637.72C1113.57 630.608 1101.98 628.632 1093.13 632.408C1085.56 635.569 1079.28 644.262 1077.6 653.482C1077.51 652.999 1077.24 654.141 1077.33 656.863Z" fill="#4CAF4C"/>
<path d="M591.119 0C449.799 0 335.204 113.67 335.204 253.947C335.204 394.18 449.799 507.894 591.119 507.894C732.439 507.894 847.035 394.18 847.035 253.947C847.035 113.67 732.484 0 591.119 0ZM731.953 268.304C724.121 347.333 653.328 387.945 611.163 398.878C573.333 408.668 529.751 399.756 521.388 397.297C513.513 394.97 508.248 395.804 497.717 400.59C479.444 408.888 464.976 398.483 464.976 398.483C464.976 398.483 449.445 389.921 460.33 367.837C464.887 358.573 464.179 351.768 460.728 344.128C458.693 339.606 443.03 294.34 448.251 255.879C454.047 212.984 486.081 138.345 564.174 121.046C617.755 106.206 640.63 114.461 656.027 112.792C671.381 111.168 685.937 103.309 696.335 104.143C706.733 104.977 721.466 114.417 721.732 116.7L721.599 116.831C724.387 118.149 732.749 126.93 734.652 136.281C736.731 146.423 728.767 161.483 728.988 176.85C729.254 192.216 740.271 213.73 731.953 268.304Z" fill="#E33413"/>
<path d="M317.858 767.591C317.858 767.503 317.947 767.371 318.035 767.239C318.124 767.108 318.256 766.976 318.389 766.888C318.522 766.8 318.699 766.713 318.832 766.625C319.009 766.581 319.141 766.537 319.274 766.537H326.132C326.442 766.537 326.707 766.625 326.928 766.8C327.15 766.976 327.282 767.152 327.415 767.283L328.079 768.776L342.105 804.69C342.237 805.042 342.237 805.349 342.016 805.568C341.839 805.788 341.485 805.92 340.999 805.92H333.344C332.946 805.92 332.636 805.832 332.415 805.7C332.194 805.568 332.017 805.305 331.884 804.954C331.53 804.032 331.176 803.154 330.822 802.276C330.468 801.397 330.158 800.475 329.804 799.597H315.602C315.248 800.519 314.938 801.397 314.584 802.276C314.23 803.154 313.876 804.076 313.566 804.954C313.345 805.612 312.903 805.92 312.195 805.92H304.319C303.965 805.92 303.7 805.832 303.478 805.656C303.257 805.481 303.213 805.217 303.346 804.866L317.858 767.591ZM322.725 778.962C322.371 779.884 322.061 780.85 321.708 781.86C321.354 782.913 321 783.967 320.69 785.021C320.336 786.075 320.026 787.128 319.672 788.182C319.318 789.236 318.964 790.202 318.655 791.08H326.884L322.725 778.962Z" fill="#E33413"/>
<path d="M370.025 777.691C369.096 777.077 368.122 776.55 367.105 776.198C366.087 775.847 364.981 775.672 363.786 775.672C362.326 775.672 360.955 775.935 359.716 776.506C358.477 777.077 357.415 777.823 356.53 778.789C355.645 779.755 354.937 780.852 354.451 782.126C353.964 783.399 353.698 784.76 353.698 786.209C353.698 787.658 353.964 789.019 354.451 790.292C354.937 791.565 355.645 792.663 356.53 793.629C357.415 794.595 358.477 795.341 359.716 795.868C360.955 796.395 362.282 796.702 363.786 796.702C364.406 796.702 365.025 796.658 365.645 796.57C366.264 796.483 366.928 796.351 367.591 796.219V789.282C367.591 788.931 367.68 788.667 367.901 788.448C368.078 788.228 368.388 788.097 368.786 788.097H376.087C376.352 788.097 376.618 788.185 376.927 788.404C377.237 788.624 377.37 788.887 377.37 789.238V802.102C377.37 802.585 377.104 802.981 376.618 803.288C375.777 803.859 374.848 804.342 373.83 804.737C372.812 805.132 371.751 805.483 370.644 805.747C369.538 806.01 368.432 806.229 367.282 806.361C366.131 806.493 365.069 806.537 363.963 806.537C362.061 806.537 360.247 806.317 358.521 805.834C356.796 805.351 355.158 804.693 353.654 803.815C352.15 802.937 350.778 801.883 349.539 800.654C348.3 799.424 347.239 798.063 346.354 796.57C345.469 795.078 344.761 793.453 344.274 791.741C343.787 790.029 343.566 788.228 343.566 786.341C343.566 784.453 343.787 782.652 344.274 780.94C344.761 779.228 345.424 777.603 346.354 776.067C347.239 774.574 348.3 773.169 349.539 771.94C350.778 770.71 352.15 769.657 353.654 768.778C355.158 767.9 356.796 767.242 358.521 766.759C360.247 766.276 362.061 766.012 363.963 766.012C366.087 766.012 368.122 766.32 370.025 766.891C371.927 767.505 373.697 768.339 375.379 769.437C375.688 769.613 375.91 769.832 376.087 770.14C376.264 770.447 376.219 770.754 375.998 771.149L371.662 777.34C371.441 777.603 371.175 777.823 370.954 777.911C370.733 777.998 370.423 777.955 370.025 777.691Z" fill="#E33413"/>
<path d="M386.262 767.766C386.262 767.415 386.351 767.108 386.572 766.888C386.749 766.669 387.059 766.537 387.457 766.537H404.713C406.571 766.537 408.252 766.888 409.89 767.547C411.482 768.249 412.898 769.171 414.093 770.313C415.287 771.498 416.217 772.859 416.925 774.396C417.588 775.976 417.942 777.645 417.942 779.401C417.942 780.587 417.765 781.728 417.455 782.826C417.146 783.923 416.659 784.933 416.084 785.899C415.509 786.865 414.801 787.699 414.004 788.489C413.208 789.236 412.323 789.894 411.35 790.465L418.208 803.285C418.34 803.549 418.473 803.812 418.694 804.164C418.871 804.515 419.004 804.778 419.004 805.042C419.004 805.305 418.916 805.525 418.739 805.7C418.562 805.832 418.296 805.92 417.986 805.92H408.828C408.518 805.92 408.252 805.832 407.987 805.656C407.766 805.481 407.589 805.261 407.5 804.954L400.996 792.836H396.66V804.822C396.66 805.568 396.262 805.964 395.421 805.964H387.501C387.147 805.964 386.838 805.876 386.661 805.7C386.439 805.525 386.351 805.217 386.351 804.822V767.766H386.262ZM407.191 779.577C407.191 779.05 407.102 778.523 406.881 777.996C406.704 777.469 406.394 776.986 406.04 776.547C405.686 776.108 405.244 775.713 404.757 775.45C404.27 775.142 403.695 774.967 403.12 774.879C402.633 774.835 402.147 774.835 401.704 774.791C401.262 774.747 400.775 774.747 400.288 774.747H396.616V784.494H401.527C401.837 784.494 402.147 784.494 402.368 784.45C402.633 784.45 402.899 784.406 403.208 784.362C403.828 784.274 404.403 784.099 404.89 783.835C405.376 783.528 405.819 783.177 406.129 782.738C406.483 782.299 406.704 781.816 406.881 781.289C407.102 780.674 407.191 780.147 407.191 779.577Z" fill="#E33413"/>
<path d="M423.074 786.296C423.074 784.408 423.295 782.608 423.782 780.895C424.268 779.183 424.932 777.559 425.861 776.022C426.746 774.529 427.808 773.124 429.047 771.895C430.286 770.666 431.657 769.612 433.162 768.734C434.666 767.856 436.303 767.197 438.029 766.714C439.754 766.231 441.568 765.968 443.471 765.968C445.329 765.968 447.143 766.231 448.913 766.714C450.683 767.197 452.276 767.9 453.824 768.734C455.329 769.612 456.7 770.666 457.983 771.895C459.222 773.124 460.284 774.529 461.169 776.022C462.054 777.515 462.718 779.139 463.249 780.895C463.735 782.608 464.001 784.408 464.001 786.296C464.001 788.184 463.735 789.984 463.249 791.696C462.762 793.408 462.054 795.033 461.169 796.526C460.284 798.018 459.222 799.38 457.983 800.609C456.745 801.838 455.373 802.892 453.824 803.77C452.32 804.648 450.683 805.351 448.913 805.79C447.188 806.273 445.373 806.492 443.471 806.492C441.568 806.492 439.754 806.273 438.029 805.79C436.303 805.307 434.666 804.648 433.162 803.77C431.657 802.892 430.286 801.838 429.047 800.609C427.808 799.38 426.746 798.018 425.861 796.526C424.976 795.033 424.268 793.408 423.782 791.696C423.295 789.984 423.074 788.184 423.074 786.296ZM433.383 786.296C433.383 787.745 433.648 789.15 434.135 790.423C434.622 791.696 435.33 792.794 436.215 793.76C437.1 794.726 438.161 795.428 439.4 795.999C440.639 796.526 441.967 796.789 443.471 796.789C444.931 796.789 446.303 796.526 447.541 795.999C448.78 795.472 449.842 794.726 450.727 793.76C451.612 792.794 452.32 791.696 452.807 790.423C453.293 789.15 453.559 787.789 453.559 786.296C453.559 784.847 453.293 783.486 452.807 782.213C452.32 780.939 451.612 779.798 450.727 778.876C449.842 777.91 448.78 777.164 447.541 776.637C446.303 776.066 444.931 775.802 443.471 775.802C442.011 775.802 440.639 776.066 439.4 776.637C438.161 777.164 437.1 777.954 436.215 778.876C435.33 779.842 434.622 780.939 434.135 782.213C433.648 783.486 433.383 784.847 433.383 786.296Z" fill="#E33413"/>
<path d="M471.567 767.766C471.567 767.415 471.656 767.108 471.877 766.888C472.098 766.669 472.364 766.537 472.762 766.537H499.309C499.707 766.537 500.017 766.669 500.238 766.888C500.46 767.108 500.548 767.415 500.548 767.81V774.352C500.548 774.659 500.46 774.923 500.238 775.23C500.017 775.494 499.707 775.625 499.309 775.625H481.965V782.211H495.327C495.681 782.211 495.947 782.299 496.168 782.431C496.389 782.606 496.522 782.87 496.522 783.221V788.972C496.522 789.236 496.433 789.455 496.212 789.675C496.035 789.894 495.725 790.026 495.371 790.026H481.965V796.831H499.929C500.725 796.831 501.123 797.227 501.123 798.061V804.734C501.123 804.91 501.035 805.085 500.902 805.217C500.814 805.7 500.46 805.964 499.796 805.964H472.762C472.408 805.964 472.143 805.876 471.921 805.7C471.7 805.525 471.612 805.217 471.612 804.822V767.766H471.567Z" fill="#E33413"/>
<path d="M504.84 805.26C504.972 804.997 505.149 804.734 505.282 804.47C505.415 804.207 505.592 803.899 505.813 803.636L517.848 785.81C515.813 782.737 513.777 779.708 511.786 776.722C509.795 773.737 507.76 770.707 505.725 767.634C505.636 767.502 505.548 767.37 505.459 767.239C505.415 767.107 505.371 766.975 505.326 766.843C505.371 766.712 505.459 766.624 505.636 766.624C505.813 766.624 505.99 766.58 506.167 766.492H515.459C516.122 766.492 516.653 766.843 517.007 767.502L523.556 777.249L530.192 767.502C530.546 766.843 531.077 766.492 531.741 766.492H540.148H540.679C540.855 766.492 541.032 766.492 541.209 766.492C541.386 766.492 541.519 766.536 541.652 766.58C541.785 766.624 541.829 766.712 541.829 766.799C541.829 767.019 541.74 767.239 541.519 767.502L529.219 785.723L541.74 804.295C541.917 804.558 542.05 804.777 542.139 804.953C542.227 805.129 542.271 805.304 542.271 805.48C542.271 805.743 542.094 805.875 541.785 805.875H532.228C531.918 805.875 531.652 805.787 531.387 805.612C531.121 805.436 530.945 805.217 530.812 804.909L523.556 794.24L516.343 804.909C516.211 805.217 515.99 805.436 515.768 805.612C515.503 805.787 515.237 805.875 514.928 805.875H505.813H505.326C505.194 805.875 505.061 805.831 504.972 805.743C504.884 805.656 504.795 805.568 504.795 805.392C504.795 805.436 504.795 805.348 504.84 805.26Z" fill="#E33413"/>
<path d="M548.157 767.766C548.157 767.415 548.246 767.108 548.467 766.888C548.644 766.669 548.954 766.537 549.352 766.537H566.431C567.67 766.537 568.82 766.713 569.926 767.064C571.032 767.415 572.006 767.854 572.935 768.469C573.864 769.083 574.661 769.786 575.413 770.576C576.165 771.41 576.784 772.288 577.271 773.254C577.802 774.22 578.156 775.23 578.421 776.284C578.687 777.338 578.82 778.391 578.82 779.489C578.82 781.069 578.51 782.65 577.935 784.143C577.359 785.68 576.519 786.997 575.457 788.182C574.395 789.368 573.112 790.333 571.608 791.08C570.103 791.826 568.466 792.177 566.652 792.221H558.555V804.866C558.555 805.612 558.157 806.008 557.316 806.008H549.352C548.998 806.008 548.733 805.92 548.511 805.744C548.29 805.568 548.202 805.261 548.202 804.866V767.766H548.157ZM568.289 779.401C568.289 778.874 568.201 778.347 568.024 777.82C567.847 777.294 567.581 776.811 567.227 776.416C566.873 776.02 566.431 775.669 565.944 775.406C565.413 775.142 564.882 775.011 564.219 775.011H558.555V783.879H564.219C564.882 783.879 565.457 783.748 565.944 783.484C566.475 783.221 566.918 782.913 567.227 782.474C567.581 782.079 567.847 781.596 568.024 781.069C568.201 780.499 568.289 779.972 568.289 779.401Z" fill="#E33413"/>
<path d="M583.774 786.296C583.774 784.408 583.996 782.608 584.482 780.895C584.969 779.183 585.633 777.559 586.562 776.022C587.447 774.529 588.509 773.124 589.748 771.895C590.986 770.666 592.358 769.612 593.907 768.734C595.411 767.856 597.048 767.197 598.774 766.714C600.499 766.231 602.313 765.968 604.216 765.968C606.074 765.968 607.888 766.231 609.658 766.714C611.384 767.197 613.021 767.9 614.569 768.734C616.074 769.612 617.445 770.666 618.728 771.895C619.967 773.124 621.029 774.529 621.914 776.022C622.799 777.515 623.463 779.139 623.994 780.895C624.48 782.608 624.701 784.408 624.701 786.296C624.701 788.184 624.436 789.984 623.994 791.696C623.507 793.408 622.799 795.033 621.914 796.526C621.029 798.018 619.967 799.38 618.728 800.609C617.489 801.838 616.118 802.892 614.569 803.77C613.065 804.648 611.428 805.351 609.658 805.79C607.888 806.273 606.118 806.492 604.216 806.492C602.313 806.492 600.499 806.273 598.774 805.79C597.048 805.307 595.411 804.648 593.907 803.77C592.402 802.892 591.031 801.838 589.748 800.609C588.509 799.38 587.447 798.018 586.562 796.526C585.677 795.033 584.969 793.408 584.482 791.696C584.04 789.984 583.774 788.184 583.774 786.296ZM594.128 786.296C594.128 787.745 594.393 789.15 594.88 790.423C595.367 791.696 596.075 792.794 596.96 793.76C597.844 794.726 598.906 795.428 600.145 795.999C601.384 796.526 602.711 796.789 604.216 796.789C605.676 796.789 607.048 796.526 608.286 795.999C609.525 795.472 610.587 794.726 611.472 793.76C612.357 792.794 613.065 791.696 613.552 790.423C614.038 789.15 614.304 787.789 614.304 786.296C614.304 784.847 614.038 783.486 613.552 782.213C613.065 780.939 612.357 779.798 611.472 778.876C610.587 777.91 609.525 777.164 608.286 776.637C607.048 776.066 605.676 775.802 604.216 775.802C602.756 775.802 601.384 776.066 600.145 776.637C598.906 777.164 597.844 777.954 596.96 778.876C596.075 779.842 595.367 780.939 594.88 782.213C594.393 783.486 594.128 784.847 594.128 786.296Z" fill="#E33413"/>
<path d="M632.356 767.766C632.356 767.415 632.445 767.108 632.666 766.888C632.843 766.669 633.153 766.537 633.551 766.537H650.807C652.665 766.537 654.346 766.888 655.983 767.547C657.576 768.249 658.992 769.171 660.187 770.313C661.381 771.498 662.311 772.859 663.018 774.396C663.726 775.976 664.036 777.645 664.036 779.401C664.036 780.587 663.859 781.728 663.549 782.826C663.24 783.923 662.753 784.933 662.178 785.899C661.603 786.865 660.895 787.699 660.098 788.489C659.302 789.236 658.417 789.894 657.444 790.465L664.302 803.285C664.434 803.549 664.567 803.812 664.788 804.164C664.965 804.515 665.098 804.778 665.098 805.042C665.098 805.305 665.009 805.525 664.832 805.7C664.656 805.832 664.39 805.92 664.08 805.92H654.922C654.612 805.92 654.346 805.832 654.125 805.656C653.904 805.481 653.727 805.261 653.638 804.954L647.134 792.836H642.798V804.822C642.798 805.568 642.4 805.964 641.559 805.964H633.64C633.286 805.964 632.976 805.876 632.799 805.7C632.578 805.525 632.489 805.217 632.489 804.822V767.766H632.356ZM653.284 779.577C653.284 779.05 653.196 778.523 652.975 777.996C652.798 777.469 652.488 776.986 652.134 776.547C651.78 776.108 651.338 775.713 650.851 775.45C650.364 775.142 649.789 774.967 649.214 774.879C648.727 774.835 648.241 774.835 647.798 774.791C647.356 774.747 646.869 774.747 646.382 774.747H642.71V784.494H647.621C647.931 784.494 648.241 784.494 648.462 784.45C648.727 784.45 648.993 784.406 649.302 784.362C649.922 784.274 650.497 784.099 650.984 783.835C651.47 783.528 651.913 783.177 652.223 782.738C652.577 782.299 652.798 781.816 653.019 781.289C653.196 780.674 653.284 780.147 653.284 779.577Z" fill="#E33413"/>
<path d="M668.814 767.725C668.814 767.374 668.947 767.11 669.168 766.891C669.389 766.671 669.699 766.583 670.053 766.583H698.813C699.122 766.583 699.432 766.671 699.653 766.891C699.919 767.066 700.051 767.374 700.096 767.769V774.355C700.096 774.662 699.963 774.969 699.742 775.277C699.52 775.584 699.211 775.716 698.813 775.716H689.61V804.781C689.61 805.088 689.477 805.396 689.256 805.659C689.034 805.922 688.725 806.054 688.326 806.054H680.495C680.185 806.054 679.92 805.922 679.654 805.703C679.389 805.439 679.256 805.176 679.256 804.825V775.76H670.053C669.699 775.76 669.389 775.628 669.168 775.408C668.947 775.189 668.814 774.838 668.814 774.399V767.725V767.725Z" fill="#E33413"/>
<path d="M713.767 767.591C713.767 767.503 713.855 767.371 713.944 767.239C714.032 767.108 714.165 766.976 714.298 766.888C714.431 766.8 714.608 766.713 714.74 766.625C714.917 766.581 715.05 766.537 715.183 766.537H722.041C722.351 766.537 722.616 766.625 722.793 766.8C723.014 766.976 723.147 767.152 723.28 767.283L723.943 768.776L737.969 804.69C738.102 805.042 738.102 805.349 737.881 805.568C737.704 805.788 737.35 805.92 736.863 805.92H729.209C728.81 805.92 728.501 805.832 728.28 805.7C728.058 805.568 727.881 805.305 727.749 804.954C727.395 804.032 727.041 803.154 726.687 802.276C726.333 801.397 726.023 800.475 725.669 799.597H711.466C711.112 800.519 710.803 801.397 710.449 802.276C710.095 803.154 709.741 804.076 709.431 804.954C709.21 805.612 708.723 805.92 708.059 805.92H700.184C699.83 805.92 699.564 805.832 699.343 805.656C699.122 805.481 699.077 805.217 699.21 804.866L713.767 767.591ZM718.634 778.962C718.28 779.884 717.97 780.85 717.616 781.86C717.262 782.913 716.908 783.967 716.599 785.021C716.245 786.075 715.935 787.128 715.581 788.182C715.227 789.236 714.873 790.202 714.563 791.08H722.793L718.634 778.962Z" fill="#E33413"/>
<path d="M771.153 769.438C771.463 769.613 771.684 769.833 771.817 770.14C771.949 770.404 771.949 770.755 771.728 771.15L767.215 777.516C767.038 777.824 766.817 777.999 766.596 778.043C766.374 778.087 766.109 777.999 765.799 777.824C764.914 777.165 763.941 776.682 762.923 776.331C761.861 775.98 760.755 775.804 759.561 775.804C758.101 775.804 756.773 776.067 755.534 776.638C754.295 777.165 753.234 777.955 752.349 778.877C751.464 779.843 750.756 780.941 750.269 782.214C749.782 783.487 749.517 784.848 749.517 786.297C749.517 787.746 749.782 789.107 750.269 790.38C750.756 791.654 751.464 792.751 752.349 793.717C753.234 794.683 754.295 795.429 755.534 795.956C756.773 796.483 758.101 796.79 759.561 796.79C760.755 796.79 761.861 796.615 762.923 796.264C763.985 795.912 764.959 795.386 765.844 794.727C766.153 794.551 766.419 794.464 766.64 794.507C766.861 794.551 767.082 794.683 767.304 794.99L771.861 801.532C772.038 801.927 772.082 802.235 771.949 802.498C771.817 802.762 771.595 802.981 771.286 803.157C769.604 804.254 767.79 805.132 765.888 805.747C763.941 806.362 761.906 806.669 759.782 806.669C757.879 806.669 756.065 806.45 754.34 805.967C752.614 805.484 750.977 804.825 749.473 803.947C747.968 803.069 746.597 802.015 745.358 800.786C744.119 799.557 743.057 798.196 742.172 796.703C741.287 795.21 740.579 793.585 740.137 791.873C739.65 790.161 739.429 788.361 739.429 786.473C739.429 784.585 739.65 782.785 740.137 781.072C740.624 779.36 741.287 777.736 742.172 776.199C743.057 774.662 744.119 773.301 745.358 772.072C746.597 770.843 747.968 769.789 749.473 768.911C750.977 768.033 752.614 767.374 754.34 766.891C756.065 766.408 757.879 766.145 759.782 766.145C761.906 766.145 763.941 766.452 765.844 767.023C767.702 767.462 769.472 768.34 771.153 769.438Z" fill="#E33413"/>
<path d="M779.738 767.722C779.738 767.415 779.827 767.152 780.048 766.888C780.225 766.669 780.534 766.537 780.933 766.537H788.808C789.074 766.537 789.339 766.625 789.649 766.844C789.959 767.064 790.092 767.327 790.092 767.678V804.734C790.092 805.525 789.649 805.92 788.764 805.92H780.888C780.092 805.92 779.738 805.525 779.738 804.734V767.722V767.722Z" fill="#E33413"/>
<path d="M797.921 786.297C797.921 784.409 798.142 782.609 798.629 780.896C799.116 779.184 799.779 777.559 800.709 776.023C801.594 774.53 802.655 773.125 803.894 771.896C805.133 770.666 806.505 769.613 808.009 768.734C809.513 767.856 811.151 767.198 812.876 766.715C814.602 766.232 816.416 765.969 818.318 765.969C820.177 765.969 821.991 766.232 823.761 766.715C825.486 767.198 827.123 767.9 828.672 768.734C830.176 769.613 831.548 770.666 832.831 771.896C834.07 773.125 835.132 774.53 836.017 776.023C836.901 777.516 837.565 779.14 838.096 780.896C838.583 782.609 838.848 784.409 838.848 786.297C838.848 788.184 838.583 789.985 838.096 791.697C837.609 793.409 836.901 795.034 836.017 796.526C835.132 798.019 834.07 799.38 832.831 800.61C831.592 801.839 830.22 802.893 828.672 803.771C827.167 804.649 825.53 805.351 823.761 805.79C822.035 806.273 820.221 806.493 818.318 806.493C816.416 806.493 814.602 806.229 812.876 805.79C811.151 805.307 809.513 804.649 808.009 803.771C806.505 802.893 805.133 801.839 803.894 800.61C802.655 799.38 801.594 798.019 800.709 796.526C799.824 795.034 799.116 793.409 798.629 791.697C798.142 789.985 797.921 788.184 797.921 786.297ZM808.23 786.297C808.23 787.745 808.496 789.15 808.983 790.424C809.469 791.697 810.177 792.794 811.062 793.76C811.947 794.726 813.009 795.429 814.248 796C815.487 796.526 816.814 796.79 818.318 796.79C819.778 796.79 821.15 796.526 822.389 796C823.628 795.473 824.69 794.726 825.575 793.76C826.46 792.794 827.167 791.697 827.654 790.424C828.141 789.15 828.406 787.789 828.406 786.297C828.406 784.848 828.141 783.487 827.654 782.213C827.167 780.94 826.46 779.799 825.575 778.877C824.69 777.911 823.628 777.164 822.389 776.637C821.15 776.067 819.778 775.803 818.318 775.803C816.858 775.803 815.487 776.067 814.248 776.637C813.009 777.164 811.947 777.955 811.062 778.877C810.177 779.842 809.469 780.94 808.983 782.213C808.496 783.487 808.23 784.848 808.23 786.297ZM816.549 755.914C816.637 755.519 816.814 755.212 817.079 755.036C817.345 754.861 817.655 754.773 817.964 754.773H824.867C825.132 754.773 825.309 754.817 825.442 754.948C825.575 755.036 825.663 755.168 825.707 755.343C825.752 755.519 825.752 755.695 825.707 755.87C825.663 756.09 825.619 756.265 825.53 756.485L822.92 762.193C822.699 762.588 822.477 762.851 822.3 763.027C822.079 763.202 821.814 763.29 821.504 763.29H815.664C815.398 763.29 815.221 763.202 815.133 763.071C815.044 762.939 815 762.763 815 762.544C815 762.368 815.044 762.149 815.088 761.929C815.133 761.71 815.177 761.49 815.221 761.358L816.549 755.914Z" fill="#E33413"/>
<path d="M846.504 767.722C846.504 767.415 846.593 767.152 846.814 766.888C846.991 766.669 847.301 766.537 847.699 766.537H856.46C856.725 766.537 856.946 766.581 857.256 766.713C857.521 766.844 857.743 767.064 857.964 767.371C860.22 771.015 862.477 774.572 864.689 778.084C866.902 781.596 869.158 785.197 871.459 788.797V767.547C871.547 767.239 871.68 766.976 871.901 766.8C872.123 766.625 872.344 766.537 872.653 766.537H880.264C880.618 766.537 880.927 766.625 881.193 766.844C881.458 767.064 881.591 767.327 881.591 767.722V804.91C881.591 805.261 881.458 805.525 881.281 805.7C881.06 805.876 880.795 805.964 880.396 805.964H871.857C871.636 805.964 871.415 805.876 871.238 805.744C871.061 805.568 870.884 805.393 870.662 805.085C868.273 801.178 865.928 797.358 863.627 793.539C861.327 789.719 858.937 785.899 856.548 781.991V804.778C856.548 805.173 856.46 805.481 856.283 805.656C856.106 805.832 855.796 805.964 855.309 805.964H847.699C847.301 805.964 846.991 805.832 846.814 805.612C846.637 805.393 846.549 805.129 846.549 804.822V767.722H846.504Z" fill="#E33413"/>
</svg>
