<svg width="29" height="28" viewBox="0 0 29 28" fill="none" xmlns="http://www.w3.org/2000/svg">
<path d="M6.99175 3.11111C6.99175 4.76311 5.88731 6.18489 3.87909 6.18489C1.98909 6.18489 0.769531 4.844 0.769531 3.192C0.769531 1.49644 1.95175 0 3.88064 0C5.80953 0 6.95442 1.41556 6.99175 3.11111ZM0.769531 28V7.77778H6.99175V28H0.769531Z" fill="white"/>
<path d="M10.1025 14.6904C10.1025 12.2871 10.0232 10.2789 9.94385 8.54444H15.5345L15.8114 11.2247H15.9296C16.7167 9.96311 18.6456 8.11356 21.875 8.11356C25.8136 8.11356 28.7692 10.7502 28.7692 16.4233V27.9998H22.547V17.3271C22.547 14.8476 21.6027 12.956 19.4358 12.956C17.7838 12.956 16.9563 14.2938 16.5223 15.3967C16.3636 15.7918 16.3247 16.3424 16.3247 16.8947V27.9998H10.1025V14.6904Z" fill="white"/>
</svg>
